<?xml version="1.0" encoding="UTF-8" standalone="no"?>
<svg width="100%" height="100%" viewBox="0 0 100 100" version="1.1" xmlns="http://www.w3.org/2000/svg" style="fill-rule:evenodd;clip-rule:evenodd;stroke-linejoin:round;stroke-miterlimit:2;">
    <g transform="matrix(1,0,0,1,-169,-153)">
        <g transform="matrix(1.515152,0,0,1.515152,-87.060606,-78.818182)">
            <rect x="169" y="153" width="66" height="66" style="fill:none;"/>
            <g transform="matrix(0.738158,0,0,0.738158,56.582895,54.607895)">
                <path d="M235,159L235,197C235,207.486 226.486,216 216,216L178,216C167.514,216 159,207.486 159,197L159,159C159,148.514 167.514,140 178,140L216,140C226.486,140 235,148.514 235,159ZM203.259,151.176C191.415,151.176 181.8,160.792 181.8,172.635C181.8,184.479 191.415,194.094 203.259,194.094C215.102,194.094 224.718,184.479 224.718,172.635C224.718,160.792 215.102,151.176 203.259,151.176Z" />
            </g>
        </g>
    </g>
    <style>
        path { fill: #0e0f12; }
        @media (prefers-color-scheme: dark) {
            path { fill: #e8e8ec; }
        }
    </style>
</svg>
