<?xml version="1.0" encoding="UTF-8" standalone="no"?>
<svg width="100%" height="100%" viewBox="0 0 100 100" version="1.1" xmlns="http://www.w3.org/2000/svg" style="fill-rule:evenodd;clip-rule:evenodd;stroke-linejoin:round;stroke-miterlimit:2;">
    <g transform="matrix(5.635643,0,0,5.635643,-17.625,-4.259)">
        <path d="M8.445,16.203C6.147,16.131 4.271,15.987 3.688,15.772C5.179,14.121 6.003,11.974 6,9.75L6,9C6,5.708 8.708,3 12,3C15.292,3 18,5.708 18,9L18,9.75C17.997,11.974 18.821,14.121 20.311,15.772C19.369,16.12 15.168,16.279 11.202,16.253L11.202,14.688L12.722,14.688C13.556,14.688 14.276,14.53 14.881,14.215C15.486,13.901 15.95,13.452 16.274,12.871C16.597,12.289 16.759,11.603 16.759,10.814C16.759,9.608 16.4,8.658 15.683,7.964C14.965,7.271 13.978,6.924 12.722,6.924L8.445,6.924L8.445,16.203ZM11.202,12.174L11.202,9.437L12.511,9.437C12.951,9.437 13.301,9.554 13.559,9.789C13.817,10.024 13.946,10.366 13.946,10.814C13.946,11.262 13.814,11.601 13.552,11.83C13.289,12.06 12.942,12.174 12.511,12.174L11.202,12.174Z" />
    </g>
    <style>
        path { fill: #242424; }
        @media (prefers-color-scheme: dark) {
            path { fill: #6B7280; }
        }
    </style>
</svg>
