<?xml version="1.0" encoding="UTF-8" standalone="no"?>
<svg width="100%" height="100%" viewBox="0 0 140 40" version="1.1" xmlns="http://www.w3.org/2000/svg" style="fill-rule:evenodd;clip-rule:evenodd;stroke-linejoin:round;stroke-miterlimit:2;">
    <g transform="matrix(0.421053,0,0,0.421053,-62.9474,-54.9474)">
        <path d="M235,159L235,197C235,207.486 226.486,216 216,216L178,216C167.514,216 159,207.486 159,197L159,159C159,148.514 167.514,140 178,140L216,140C226.486,140 235,148.514 235,159ZM203.259,151.176C191.415,151.176 181.8,160.792 181.8,172.635C181.8,184.479 191.415,194.094 203.259,194.094C215.102,194.094 224.718,184.479 224.718,172.635C224.718,160.792 215.102,151.176 203.259,151.176Z"/>
    </g>
    <text x="44" y="27" style="font-family:'Geist','Inter',system-ui,-apple-system,sans-serif;font-size:18px;font-weight:500;letter-spacing:0.3px;">pingr</text>
    <style>
        path, text { fill: #242424; }
        @media (prefers-color-scheme: dark) {
            path, text { fill: #6B7280; }
        }
    </style>
</svg>
